<?xml version="1.0" encoding="UTF-8"?>
<svg version="1.1" xmlns="http://www.w3.org/2000/svg" width="500" height="500">
<path d="M0 0 C4.82380802 -0.0246519 9.64757967 -0.04283693 14.47143555 -0.05493164 C16.11369464 -0.05997174 17.75594923 -0.06680378 19.39819336 -0.07543945 C21.75375479 -0.08751926 24.10925709 -0.09323139 26.46484375 -0.09765625 C27.20339096 -0.10281754 27.94193817 -0.10797882 28.7028656 -0.11329651 C30.46898088 -0.1134925 32.23497146 -0.06194719 34 0 C35.71567792 1.71567792 35.13015825 3.97372735 35.1328125 6.3125 C35.13410156 7.38757813 35.13539063 8.46265625 35.13671875 9.5703125 C35.13285156 10.70210937 35.12898438 11.83390625 35.125 13 C35.12886719 14.13179687 35.13273437 15.26359375 35.13671875 16.4296875 C35.13542969 17.50476563 35.13414062 18.57984375 35.1328125 19.6875 C35.13168457 20.68136719 35.13055664 21.67523438 35.12939453 22.69921875 C35 25 35 25 34 26 C31.40846893 26.15996166 28.8404798 26.25938697 26.24609375 26.31640625 C25.47064713 26.33718735 24.6952005 26.35796844 23.89625549 26.37937927 C21.41009692 26.44495802 18.92382955 26.50379799 16.4375 26.5625 C14.75584796 26.60567733 13.07420706 26.64929136 11.39257812 26.69335938 C7.26183129 26.80064779 3.13097464 26.90189132 -1 27 C-1 28.65 -1 30.3 -1 32 C0.05501709 31.99476318 1.11003418 31.98952637 2.19702148 31.98413086 C6.0975663 31.96608099 9.9981074 31.95456805 13.89868164 31.94506836 C15.58944316 31.9400281 17.28020029 31.93319595 18.97094727 31.92456055 C21.39600707 31.91248143 23.82100944 31.90676877 26.24609375 31.90234375 C27.38672523 31.89460182 27.38672523 31.89460182 28.55039978 31.88670349 C30.3673257 31.88650762 32.18413127 31.93802723 34 32 C35 33 35 33 35.11352539 34.76586914 C35.10567017 35.88916626 35.10567017 35.88916626 35.09765625 37.03515625 C35.09515869 37.76355713 35.09266113 38.49195801 35.09008789 39.24243164 C35.08098389 40.1730542 35.07187988 41.10367676 35.0625 42.0625 C35.041875 45.011875 35.02125 47.96125 35 51 C23.78 51.33 12.56 51.66 1 52 C1 53.32 1 54.64 1 56 C2.12230134 57.35030189 2.12230134 57.35030189 5.03515625 57.09765625 C6.37763729 57.09069863 7.72009755 57.0786057 9.0625 57.0625 C9.76898682 57.05871338 10.47547363 57.05492676 11.20336914 57.05102539 C13.46897328 57.03876536 15.73445293 57.02013394 18 57 C20.97916314 56.97352415 23.95826411 56.95346808 26.9375 56.9375 C27.6291626 56.92920166 28.3208252 56.92090332 29.03344727 56.91235352 C30.68920038 56.90377232 32.34508105 56.94675293 34 57 C36.38812446 59.38812446 35.482011 65.27433639 35.625 68.5 C35.6765625 69.48871094 35.728125 70.47742188 35.78125 71.49609375 C35.82507813 72.43582031 35.86890625 73.37554687 35.9140625 74.34375 C35.9548291 75.21193359 35.9955957 76.08011719 36.03759766 76.97460938 C36 79 36 79 35 80 C32.8273732 80.09956278 30.65146894 80.12799719 28.4765625 80.12939453 C27.79527283 80.13114685 27.11398315 80.13289917 26.41204834 80.13470459 C24.14967333 80.13912242 21.88737587 80.13618538 19.625 80.1328125 C18.0594074 80.13348556 16.4938149 80.1344556 14.92822266 80.13571167 C11.64289355 80.13718855 8.35759158 80.13503441 5.07226562 80.13037109 C0.85179484 80.1246738 -3.36861236 80.12795286 -7.58908081 80.13394356 C-10.82316572 80.13754944 -14.05723545 80.13641046 -17.2913208 80.13381577 C-18.84792081 80.13314657 -20.40452218 80.13397466 -21.96112061 80.13629532 C-24.13297196 80.1388223 -26.30471896 80.13498065 -28.4765625 80.12939453 C-29.71486816 80.12859894 -30.95317383 80.12780334 -32.22900391 80.12698364 C-35 80 -35 80 -36 79 C-36.10908987 76.69627866 -36.13954059 74.4296838 -36.125 72.125 C-36.12306641 71.35833008 -36.12113281 70.59166016 -36.11914062 69.80175781 C-36.05500413 60.34875056 -35.72156483 50.90038061 -35.42880249 41.45230103 C-35.04402532 28.96441211 -34.87737172 16.49445946 -35 4 C-30.05 4 -25.1 4 -20 4 C-20.27714844 6.32675781 -20.55429688 8.65351563 -20.83984375 11.05078125 C-21.11160635 13.34118479 -21.38285314 15.63164888 -21.65405273 17.92211914 C-21.84068986 19.49607618 -22.02785079 21.06997121 -22.21557617 22.64379883 C-23.26204595 31.42019206 -24.27794612 40.18949609 -25 49 C-24.38318359 47.24816406 -24.38318359 47.24816406 -23.75390625 45.4609375 C-22.17798774 41.26647059 -20.19073425 37.4883268 -17.9375 33.625 C-17.14145837 32.23334092 -16.34590505 30.84140244 -15.55078125 29.44921875 C-15.13650879 28.72782715 -14.72223633 28.00643555 -14.29541016 27.26318359 C-12.04707647 23.33516752 -9.83335672 19.38809112 -7.625 15.4375 C-7.20855225 14.70031738 -6.79210449 13.96313477 -6.36303711 13.20361328 C-5.96737549 12.49575684 -5.57171387 11.78790039 -5.1640625 11.05859375 C-4.81811035 10.44298584 -4.4721582 9.82737793 -4.11572266 9.19311523 C-2.58774474 6.1896523 -1.30593582 3.10644519 0 0 Z M-27 51 C-26 53 -26 53 -26 53 Z " fill="#EFEFEF" transform="translate(190,214)"/>
<path d="M0 0 C8.25 0 16.5 0 25 0 C25.99 9.24 26.98 18.48 28 28 C29.27591171 19.15995414 29.27591171 19.15995414 30.54272461 10.31860352 C30.78261108 8.67782837 30.78261108 8.67782837 31.02734375 7.00390625 C31.18968506 5.87799072 31.35202637 4.7520752 31.51928711 3.59204102 C32 1 32 1 33 0 C35.29151417 -0.08790975 37.58572524 -0.10694038 39.87890625 -0.09765625 C40.90889992 -0.09553383 40.90889992 -0.09553383 41.95970154 -0.09336853 C44.16067801 -0.08775479 46.36155409 -0.07520007 48.5625 -0.0625 C50.05143083 -0.05748676 51.54036324 -0.05292355 53.02929688 -0.04882812 C56.68623075 -0.03778093 60.34310558 -0.02050713 64 0 C64.40278085 8.30921968 63.677746 15.97413326 62.29167175 24.13899231 C61.15630518 30.85982348 60.23495381 37.5916006 59.39453125 44.35546875 C59.27792648 45.29119217 59.16132172 46.22691559 59.04118347 47.19099426 C58.62884569 50.52282039 58.22091134 53.8551903 57.8125 57.1875 C56.884375 64.715625 55.95625 72.24375 55 80 C37.84 80 20.68 80 3 80 C0.8201095 65.83071177 0.8201095 65.83071177 1.70214844 59.44042969 C2.01754688 56.85623064 2.0712648 54.36045222 2.0703125 51.7578125 C2.17661251 35.34392639 5.5022035 20.71337711 10 5 C8.39125 5.495 8.39125 5.495 6.75 6 C3 7 3 7 -1 7 C-0.67 4.69 -0.34 2.38 0 0 Z " fill="#F2F2F2" transform="translate(289,214)"/>
<path d="M0 0 C4.3924631 -0.07482575 8.78457672 -0.12891683 13.17749023 -0.16479492 C14.66811598 -0.17977042 16.15869851 -0.20015819 17.64916992 -0.22631836 C19.80658709 -0.26320347 21.96341596 -0.2798383 24.12109375 -0.29296875 C25.4145874 -0.3086792 26.70808105 -0.32438965 28.04077148 -0.34057617 C32 0 32 0 41 3 C41 9.93 41 16.86 41 24 C43.97 23.01 46.94 22.02 50 21 C50.99 21 51.98 21 53 21 C54.53210861 25.9280895 55.49275659 30.70000263 56.02734375 35.83984375 C56.10296036 36.56563126 56.17857697 37.29141876 56.25648499 38.03919983 C56.41078928 39.5640598 56.56099781 41.08933935 56.70727539 42.61499023 C56.86070974 44.16283854 57.02672919 45.70949111 57.20532227 47.25463867 C58.87873456 61.7457426 58.87873456 61.7457426 55.8046875 66.859375 C54.38745117 68.60913086 54.38745117 68.60913086 53 70 C52.35417969 70.65613281 51.70835937 71.31226563 51.04296875 71.98828125 C42.09830751 78.37194475 33.76659535 80.14492101 22.75390625 80.09765625 C22.09792953 80.0962413 21.44195282 80.09482635 20.76609802 80.09336853 C18.69818298 80.08783031 16.63038158 80.07529002 14.5625 80.0625 C13.14909012 80.05747699 11.73567852 80.0529155 10.32226562 80.04882812 C6.88147432 80.03788126 3.44074828 80.02066038 0 80 C-0.05534912 79.32420898 -0.11069824 78.64841797 -0.16772461 77.95214844 C-0.42090531 74.88447302 -0.6791479 71.81724404 -0.9375 68.75 C-1.06801758 67.15478516 -1.06801758 67.15478516 -1.20117188 65.52734375 C-1.28818359 64.50253906 -1.37519531 63.47773438 -1.46484375 62.421875 C-1.543396 61.47924805 -1.62194824 60.53662109 -1.70288086 59.56542969 C-1.93610778 57.02682019 -1.93610778 57.02682019 -2.59594727 54.72363281 C-2.72928467 54.15483398 -2.86262207 53.58603516 -3 53 C-2.505 52.505 -2.505 52.505 -2 52 C-1.74865456 48.73673357 -1.81477366 45.45930284 -1.8125 42.1875 C-1.80025391 41.27162109 -1.78800781 40.35574219 -1.77539062 39.41210938 C-1.77345703 38.52716797 -1.77152344 37.64222656 -1.76953125 36.73046875 C-1.76542236 35.91989014 -1.76131348 35.10931152 -1.75708008 34.27416992 C-2.02319145 31.78288608 -2.75380417 30.15498962 -4 28 C-3.34 27.34 -2.68 26.68 -2 26 C-1.64510164 23.5120055 -1.64510164 23.5120055 -1.62109375 20.625 C-1.58693359 19.55765625 -1.55277344 18.4903125 -1.51757812 17.390625 C-1.49115234 16.27171875 -1.46472656 15.1528125 -1.4375 14 C-1.37770913 11.79155442 -1.31410015 9.58320786 -1.24609375 7.375 C-1.21020142 5.90160156 -1.21020142 5.90160156 -1.17358398 4.3984375 C-1 2 -1 2 0 0 Z M23 28 C21.76078789 29.01636977 21.76078789 29.01636977 21.88647461 31.13305664 C21.89171143 32.04949951 21.89694824 32.96594238 21.90234375 33.91015625 C21.90556641 34.89951172 21.90878906 35.88886719 21.91210938 36.90820312 C21.92048828 37.94912109 21.92886719 38.99003906 21.9375 40.0625 C21.94201172 41.10728516 21.94652344 42.15207031 21.95117188 43.22851562 C21.96300087 45.8190666 21.97948311 48.40950559 22 51 C23.32 51.33 24.64 51.66 26 52 C27.14986014 48.34052447 27.13314948 44.88053347 27.125 41.0625 C27.12757813 39.85722656 27.13015625 38.65195313 27.1328125 37.41015625 C27.01821801 34.46777408 26.68262539 31.85510777 26 29 C25.01 28.67 24.02 28.34 23 28 Z " fill="#F3F3F3" transform="translate(229,214)"/>
<path d="M0 0 C0.598125 0.165 1.19625 0.33 1.8125 0.5 C4.30708782 1.2438266 4.30708782 1.2438266 8 0 C8 3.3 8 6.6 8 10 C4 9 4 9 3 8 C2.67 8.66 2.34 9.32 2 10 C1.01 10 0.02 10 -1 10 C-1.02689216 8.52093108 -1.04634621 7.04172517 -1.0625 5.5625 C-1.07410156 4.73878906 -1.08570313 3.91507812 -1.09765625 3.06640625 C-1 1 -1 1 0 0 Z " fill="#A8A8A8" transform="translate(314,304)"/>
<path d="M0 0 C3.375 -0.125 3.375 -0.125 7 0 C9 2 9 2 9.25 5 C9 8 9 8 7 10 C3.375 10.125 3.375 10.125 0 10 C0 6.7 0 3.4 0 0 Z M3 2 C3 3.65 3 5.3 3 7 C3.99 6.67 4.98 6.34 6 6 C5.34 4.68 4.68 3.36 4 2 C3.67 2 3.34 2 3 2 Z " fill="#9C9C9C" transform="translate(247,304)"/>
<path d="M0 0 C2.31 0 4.62 0 7 0 C7.19412181 1.47831221 7.38012131 2.95769316 7.5625 4.4375 C7.66691406 5.26121094 7.77132812 6.08492188 7.87890625 6.93359375 C7.91886719 7.61550781 7.95882812 8.29742187 8 9 C7 10 7 10 3.4375 10.0625 C2.303125 10.041875 1.16875 10.02125 0 10 C0 6.7 0 3.4 0 0 Z " fill="#676767" transform="translate(166,304)"/>
<path d="M0 0 C2.64 0 5.28 0 8 0 C7.814375 0.9075 7.62875 1.815 7.4375 2.75 C7.04265379 5.68314324 7.05308428 7.2644657 8 10 C5.36 10 2.72 10 0 10 C0 6.7 0 3.4 0 0 Z " fill="#959796" transform="translate(224,304)"/>
<path d="M0 0 C2.31 0 4.62 0 7 0 C7 1.32 7 2.64 7 4 C5.68 4 4.36 4 3 4 C3 4.66 3 5.32 3 6 C3.66 6.33 4.32 6.66 5 7 C5 6.34 5 5.68 5 5 C5.99 5.33 6.98 5.66 8 6 C7.67 7.32 7.34 8.64 7 10 C4.69 10 2.38 10 0 10 C-1.36952673 7.26094655 -1.12621361 5.02912668 -1 2 C-0.67 1.34 -0.34 0.68 0 0 Z " fill="#979797" transform="translate(330,304)"/>
<path d="M0 0 C1.65 0 3.3 0 5 0 C6.31626692 3.61973402 7 6.09567131 7 10 C6.01 10 5.02 10 4 10 C4 9.34 4 8.68 4 8 C3.01 8 2.02 8 1 8 C1 8.66 1 9.32 1 10 C-0.32 10 -1.64 10 -3 10 C-2.01 6.7 -1.02 3.4 0 0 Z " fill="#CCCCCC" transform="translate(197,304)"/>
<path d="M0 0 C1.32 0 2.64 0 4 0 C4.33 0.66 4.66 1.32 5 2 C5.66 1.34 6.32 0.68 7 0 C7.99 0 8.98 0 10 0 C9.34 2.97 8.68 5.94 8 9 C6.35 9.33 4.7 9.66 3 10 C2.01 6.7 1.02 3.4 0 0 Z " fill="#BCBCBC" transform="translate(287,304)"/>
<path d="M0 0 C1.32 0 2.64 0 4 0 C4.99 3.3 5.98 6.6 7 10 C5.68 10 4.36 10 3 10 C3 9.34 3 8.68 3 8 C2.01 8 1.02 8 0 8 C0 8.66 0 9.32 0 10 C-0.99 10 -1.98 10 -3 10 C-2.69201674 8.51988629 -2.378482 7.04092675 -2.0625 5.5625 C-1.88847656 4.73878906 -1.71445312 3.91507812 -1.53515625 3.06640625 C-1 1 -1 1 0 0 Z " fill="#C4C4C4" transform="translate(265,304)"/>
<path d="M0 0 C2.31 0 4.62 0 7 0 C7 1.32 7 2.64 7 4 C5.68 3.67 4.36 3.34 3 3 C2.67 4.32 2.34 5.64 2 7 C3.65 6.34 5.3 5.68 7 5 C7.5625 6.9375 7.5625 6.9375 8 9 C7 10 7 10 3.4375 10.0625 C2.303125 10.041875 1.16875 10.02125 0 10 C-1.36952673 7.26094655 -1.12621361 5.02912668 -1 2 C-0.67 1.34 -0.34 0.68 0 0 Z " fill="#C0C0C0" transform="translate(181,304)"/>
<path d="M0 0 C2.31 0 4.62 0 7 0 C6.979375 1.093125 6.95875 2.18625 6.9375 3.3125 C6.81455548 6.94384191 6.81455548 6.94384191 8 10 C5.36 10 2.72 10 0 10 C0 6.7 0 3.4 0 0 Z " fill="#C4C4C4" transform="translate(153,304)"/>
<path d="M0 0 C2.31 0 4.62 0 7 0 C7.625 2.375 7.625 2.375 8 5 C7.34 5.66 6.68 6.32 6 7 C5.01 7 4.02 7 3 7 C3 7.99 3 8.98 3 10 C2.01 10 1.02 10 0 10 C0 6.7 0 3.4 0 0 Z M3 2 C4 4 4 4 4 4 Z " fill="#C7C7C7" transform="translate(210,304)"/>
<path d="M0 0 C0.99 0 1.98 0 3 0 C3 3.3 3 6.6 3 10 C1.68 9.67 0.36 9.34 -1 9 C-1.80967438 6.08517222 -2.21845993 4.53886783 -1.0625 1.6875 C-0.711875 1.130625 -0.36125 0.57375 0 0 Z " fill="#D0D0D0" transform="translate(319,304)"/>
<path d="M0 0 C0.33 0.66 0.66 1.32 1 2 C1.66 2 2.32 2 3 2 C3.33 3.65 3.66 5.3 4 7 C3.01 7 2.02 7 1 7 C1 7.66 1 8.32 1 9 C0.01 9 -0.98 9 -2 9 C-1.34 6.03 -0.68 3.06 0 0 Z " fill="#B7B7B7" transform="translate(264,305)"/>
<path d="M0 0 C0.99 0 1.98 0 3 0 C3 3.3 3 6.6 3 10 C2.01 10 1.02 10 0 10 C0 6.7 0 3.4 0 0 Z " fill="#D0D0D0" transform="translate(344,304)"/>
<path d="M0 0 C0.99 0 1.98 0 3 0 C3 3.3 3 6.6 3 10 C2.01 10 1.02 10 0 10 C0 6.7 0 3.4 0 0 Z " fill="#D3D3D3" transform="translate(303,304)"/>
<path d="M0 0 C0.66 0 1.32 0 2 0 C2.93423645 3.01031744 3.04449911 3.86650268 2 7 C3.32 7 4.64 7 6 7 C6 7.66 6 8.32 6 9 C4.02 9 2.04 9 0 9 C0 6.03 0 3.06 0 0 Z " fill="#EFF1F0" transform="translate(225,305)"/>
<path d="M0 0 C0.99 0 1.98 0 3 0 C2.34 2.97 1.68 5.94 1 9 C0.67 7.68 0.34 6.36 0 5 C-0.99 4.67 -1.98 4.34 -3 4 C-2 2 -2 2 0 0 Z " fill="#909090" transform="translate(294,304)"/>
<path d="M0 0 C1.65 0 3.3 0 5 0 C5 1.32 5 2.64 5 4 C3 4 1 4 -1 4 C-1.33 4.99 -1.66 5.98 -2 7 C-1.125 2.25 -1.125 2.25 0 0 Z " fill="#B1B1B1" transform="translate(332,304)"/>
<path d="M0 0 C0 1.32 0 2.64 0 4 C-2.31 4 -4.62 4 -7 4 C-7 3.01 -7 2.02 -7 1 C-4.50935112 0.31292445 -2.62113708 0 0 0 Z " fill="#BCBCBC" transform="translate(173,310)"/>
<path d="M0 0 C3 4 3 4 3 6 C2.01 6.66 1.02 7.32 0 8 C0.33 8.66 0.66 9.32 1 10 C-0.32 10 -1.64 10 -3 10 C-2.01 6.7 -1.02 3.4 0 0 Z " fill="#8A8A8A" transform="translate(197,304)"/>
<path d="M0 0 C1.98 0 3.96 0 6 0 C6 0.66 6 1.32 6 2 C5.01 2.495 5.01 2.495 4 3 C4.33 3.66 4.66 4.32 5 5 C3.35 4.67 1.7 4.34 0 4 C0 2.68 0 1.36 0 0 Z " fill="#D9D9D9" transform="translate(166,304)"/>
<path d="M0 0 C0.99 0 1.98 0 3 0 C2.67 2.64 2.34 5.28 2 8 C2.66 8.33 3.32 8.66 4 9 C2.68 9 1.36 9 0 9 C0 6.03 0 3.06 0 0 Z " fill="#FBFBFB" transform="translate(248,304)"/>
<path d="M0 0 C1.32 0.33 2.64 0.66 4 1 C4 2.98 4 4.96 4 7 C3.01 6.67 2.02 6.34 1 6 C0.67 4.02 0.34 2.04 0 0 Z " fill="#C1C1C1" transform="translate(251,304)"/>
<path d="M0 0 C0.66 0.33 1.32 0.66 2 1 C1.67 2.32 1.34 3.64 1 5 C-1.31 5 -3.62 5 -6 5 C-4.00856305 2.01284458 -3.23356015 1.21258505 0 0 Z " fill="#858585" transform="translate(187,309)"/>
<path d="M0 0 C0.99 0 1.98 0 3 0 C3.33 2.31 3.66 4.62 4 7 C3.67 6.34 3.34 5.68 3 5 C1.68 5 0.36 5 -1 5 C-0.67 3.35 -0.34 1.7 0 0 Z " fill="#6A6C6B" transform="translate(228,307)"/>
<path d="M0 0 C1.65 0 3.3 0 5 0 C5 0.99 5 1.98 5 3 C3.35 3 1.7 3 0 3 C0 2.01 0 1.02 0 0 Z " fill="#7D7D7D" transform="translate(277,307)"/>
<path d="" fill="#000000" transform="translate(0,0)"/>
<path d="" fill="#000000" transform="translate(0,0)"/>
<path d="" fill="#000000" transform="translate(0,0)"/>
<path d="" fill="#000000" transform="translate(0,0)"/>
<path d="" fill="#000000" transform="translate(0,0)"/>
<path d="" fill="#000000" transform="translate(0,0)"/>
<path d="" fill="#000000" transform="translate(0,0)"/>
<path d="" fill="#000000" transform="translate(0,0)"/>
<path d="" fill="#000000" transform="translate(0,0)"/>
<path d="" fill="#000000" transform="translate(0,0)"/>
<path d="" fill="#000000" transform="translate(0,0)"/>
<path d="" fill="#000000" transform="translate(0,0)"/>
<path d="" fill="#000000" transform="translate(0,0)"/>
<path d="" fill="#000000" transform="translate(0,0)"/>
<path d="" fill="#000000" transform="translate(0,0)"/>
<path d="" fill="#000000" transform="translate(0,0)"/>
<path d="" fill="#000000" transform="translate(0,0)"/>
<path d="" fill="#000000" transform="translate(0,0)"/>
<path d="" fill="#000000" transform="translate(0,0)"/>
<path d="" fill="#000000" transform="translate(0,0)"/>
<path d="" fill="#000000" transform="translate(0,0)"/>
<path d="" fill="#000000" transform="translate(0,0)"/>
<path d="" fill="#000000" transform="translate(0,0)"/>
<path d="" fill="#000000" transform="translate(0,0)"/>
<path d="" fill="#000000" transform="translate(0,0)"/>
<path d="" fill="#000000" transform="translate(0,0)"/>
<path d="" fill="#000000" transform="translate(0,0)"/>
<path d="" fill="#000000" transform="translate(0,0)"/>
<path d="" fill="#000000" transform="translate(0,0)"/>
<path d="" fill="#000000" transform="translate(0,0)"/>
<path d="" fill="#000000" transform="translate(0,0)"/>
<path d="" fill="#000000" transform="translate(0,0)"/>
<path d="" fill="#000000" transform="translate(0,0)"/>
<path d="" fill="#000000" transform="translate(0,0)"/>
<path d="" fill="#000000" transform="translate(0,0)"/>
<path d="" fill="#000000" transform="translate(0,0)"/>
<path d="" fill="#000000" transform="translate(0,0)"/>
<path d="" fill="#000000" transform="translate(0,0)"/>
<path d="" fill="#000000" transform="translate(0,0)"/>
<path d="" fill="#000000" transform="translate(0,0)"/>
<path d="" fill="#000000" transform="translate(0,0)"/>
<path d="" fill="#000000" transform="translate(0,0)"/>
<path d="" fill="#000000" transform="translate(0,0)"/>
<path d="" fill="#000000" transform="translate(0,0)"/>
<path d="" fill="#000000" transform="translate(0,0)"/>
<path d="" fill="#000000" transform="translate(0,0)"/>
<path d="" fill="#000000" transform="translate(0,0)"/>
<path d="" fill="#000000" transform="translate(0,0)"/>
<path d="" fill="#000000" transform="translate(0,0)"/>
<path d="" fill="#000000" transform="translate(0,0)"/>
<path d="" fill="#000000" transform="translate(0,0)"/>
<path d="" fill="#000000" transform="translate(0,0)"/>
<path d="" fill="#000000" transform="translate(0,0)"/>
<path d="" fill="#000000" transform="translate(0,0)"/>
<path d="" fill="#000000" transform="translate(0,0)"/>
<path d="" fill="#000000" transform="translate(0,0)"/>
<path d="" fill="#000000" transform="translate(0,0)"/>
<path d="" fill="#000000" transform="translate(0,0)"/>
<path d="" fill="#000000" transform="translate(0,0)"/>
<path d="" fill="#000000" transform="translate(0,0)"/>
<path d="" fill="#000000" transform="translate(0,0)"/>
<path d="" fill="#000000" transform="translate(0,0)"/>
<path d="" fill="#000000" transform="translate(0,0)"/>
<path d="" fill="#000000" transform="translate(0,0)"/>
<path d="" fill="#000000" transform="translate(0,0)"/>
<path d="" fill="#000000" transform="translate(0,0)"/>
<path d="" fill="#000000" transform="translate(0,0)"/>
<path d="" fill="#000000" transform="translate(0,0)"/>
<path d="" fill="#000000" transform="translate(0,0)"/>
<path d="" fill="#000000" transform="translate(0,0)"/>
<path d="" fill="#000000" transform="translate(0,0)"/>
</svg>
